<svg id="Layer_1" data-name="Layer 1" xmlns="http://www.w3.org/2000/svg" viewBox="0 0 1000 1000"><defs><style>.cls-1{fill:#010101;}.cls-2{fill:#020202;}.cls-3{fill:#030303;}.cls-4{fill:#fafafa;}.cls-5{fill:#fbfbfb;}.cls-6{fill:#040404;}.cls-7{fill:#fcfcfc;}.cls-8{fill:#f8f8f8;}.cls-9{fill:#f9f9f9;}.cls-10{fill:#f6f6f6;}.cls-11{fill:#f7f7f7;}.cls-12{fill:#050505;}</style></defs><path d="M224.57,585.26h74.67l.68,1.08c-1.78,1.23-3.4,3.09-5.37,3.58-9.83,2.43-19.71,4.66-29.65,6.62-4.41.87-9,.65-13.47,1.5-2.62.5-5,2.31-7.54,3.2-3.6,1.23-7.3,3-11,3.07-26.53.26-53.07.22-79.6.08-4.47,0-8.7-.93-12.14-4.8-1.43-1.61-5-1.36-7.67-1.81-12.07-2-24.19-3.81-36.19-6.18-3.53-.7-6.72-3.05-10.07-4.64l.55-1.63H161c-11.9-7.43-21.54-16.5-28.54-28.47-8.72-14.94-9.23-31.25-8.77-47.78,0-.7,1.17-1.68,2-2A11.12,11.12,0,0,1,129,507c42.22,0,84.45.07,126.67-.09,4.26,0,6.3.85,5.41,5.37-.66,3.4.61,4.31,4.17,4.76,5.32.68,11.09,1.63,15.6,4.28,14.35,8.43,14.63,27.62.86,37.58-9.27,6.7-19.49,8.85-30.7,5.4a5.49,5.49,0,0,0-4.5.86C239,571.84,231.71,578.69,224.57,585.26Zm37.74-34.94c3.62-2.09,7.57-3.81,10.71-6.47,1.24-1.06,1.66-4.86.74-6.34-2.51-4-7.06-3.9-11.32-3.64-3.91.25-2.79,3.65-3.54,5.87-.46,1.37-.86,2.76-1.31,4.14C256.06,548.59,256.57,549.26,262.31,550.32Z"/><path d="M356.18,496.18a20.31,20.31,0,0,0,12.62,18.95c7.19,3.06,16,1.11,21.84-4.67,1.14-1.13,3.28-2.91,4-2.54a40.66,40.66,0,0,1,7.16,5.51c.2.18-.34,1.45-.76,2-6.5,9.14-20.22,14-32,11.38-11.35-2.52-21.44-13.09-23.41-24.5-2.54-14.69,4.73-28.53,18.11-34.48,12.67-5.64,27.89-1.75,37.12,9.25,1.59,1.89,1.45,2.9-.43,4.1a9.32,9.32,0,0,0-1.56,1.14c-3.18,3.22-5.56,3.64-9-.45-4.84-5.79-14.06-7-21.46-3.87A19.89,19.89,0,0,0,356.18,496.18Zm39.24-15.82c1.28-.07,2,.09,2.48-.19s.74-1,1.75-2.6Z"/><path d="M866,526.12a19.46,19.46,0,0,1-13.23-23.93c2.73-10.06,14.44-17.6,23.7-13.55,4.94,2.16,8.05-1.31,12.19-.55,2.89.53,3.72,1,3.68,3.94-.16,12,0,23.91-.09,35.87-.08,9-5.33,17.08-13.06,19.74-8.89,3.07-16.72.88-23.78-5.79a24.33,24.33,0,0,0,2.4-2c2.91-3.12,5.43-4.45,10.05-1.81,6,3.41,12.66-.94,13.85-8,.29-1.74.3-3.52.42-5.13L873.8,527l-2-7.08Zm6.23-8.63a9.93,9.93,0,0,0,9.71-10,10,10,0,0,0-10.1-10.05c-5.08.07-9.56,4.88-9.54,10.23A10.1,10.1,0,0,0,872.19,517.49Z"/><path d="M685.42,487.89c1.21.41,2.4.87,3.63,1.23,1.58.46,3,3.51,4.89-.43.56-1.15,5.47-.51,8.28-.05.57.09.93,3.07.94,4.72q.14,14.25,0,28.51c0,1.64-.54,4.69-.88,4.7a66.4,66.4,0,0,1-9.09-.72c-.65-.08-1.38-.76-1.87-.59-12,4.24-22.26.47-26.49-9.83-4.57-11.15.12-21.66,12-26.92a16,16,0,0,1,1.78-.56ZM683,497.61a10,10,0,0,0,.1,19.9,10.19,10.19,0,0,0,9.93-9.8A10,10,0,0,0,683,497.61Z"/><path d="M194.14,422.8c13.57,8.35,16.52,22.41,6.54,34a74.12,74.12,0,0,1-10.26,9.52c-12.81,10.17-8.21,21.5-1.8,29.82a17.25,17.25,0,0,1,2.43,3.46c-8.18-3.77-16.34-7.65-21.92-14.95-4.21-5.52-5.21-12.33-1.66-18.21,3.13-5.18,7.89-9.49,12.36-13.71,1.88-1.78,4.85-2.43,7.38-3.47,12.63-5.16,15-11.84,8.42-23.72C195.12,424.65,194.64,423.73,194.14,422.8Zm-11.3,47.87c.58-.7,1.06-1,1.07-1.36s-.46-.66-.72-1c-.37.36-.9.66-1.06,1.09C182,469.67,182.52,470.14,182.84,470.67Z"/><path class="cls-1" d="M648.55,502.85c0,6.79-.16,13.58.07,20.35.1,3-.74,4.15-3.76,3.69a12.25,12.25,0,0,0-3.87,0c-3.23.53-3.71-1.09-3.69-3.84.11-13.57-.07-27.15.14-40.71,0-3.39-.84-4.69-4.25-4.22-1.75.23-3.6-.2-5.33.09-4.61.77-5.44-1.26-5.54-5.52-.12-4.66,1.1-6,5.85-5.83,10.34.39,20.71.22,31.06.06,3-.05,4.6.52,4.08,3.9a18.7,18.7,0,0,0,0,4.36c.21,2.31-.7,3.33-3,3a5.24,5.24,0,0,0-1,0c-3.48.17-8.39-.95-10.06.87-1.8,2-.62,6.71-.66,10.24C648.51,493.8,648.55,498.33,648.55,502.85Z"/><path d="M807.84,507.42c0-4.84.31-9.72-.1-14.53-.35-4.08,1.36-5.38,4.88-4.49,2,.5,5.06-2.19,6,1.81a10.4,10.4,0,0,0,1.58-.38c10.62-4.36,21.79,0,24.06,10.67,1.68,7.92,1,16.36,1.14,24.57,0,.58-1.34,1.58-2.17,1.7-1.73.27-3.56-.09-5.32.12-2.74.33-3.19-1-3.12-3.34.15-5.32.15-10.66,0-16-.15-5.88-3.35-9.37-8.27-9.34s-8,3.8-8,9.57c-.05,5-.26,10,.07,15,.25,3.57-1.06,4.24-4.33,4.12-6.36-.23-6.37,0-6.37-6.42Q807.85,514,807.84,507.42Zm34.06-5.32c-.48.46-1,.82-1,.95a17.21,17.21,0,0,0,1.07,2,6.21,6.21,0,0,0,1.06-.66A19.45,19.45,0,0,0,841.9,502.1Z"/><path class="cls-1" d="M448.82,507.86c-.06,10.63-9.2,19.83-19.73,19.87a20.33,20.33,0,0,1-20.38-20.26,20.06,20.06,0,1,1,40.11.39Zm-9.89-.23a10.44,10.44,0,0,0-9.78-10.52c-5.33-.27-10.44,4.73-10.6,10.36-.14,5.13,4.68,10.26,9.9,10.52C434,518.26,438.84,513.45,438.93,507.63Zm2.2-8.66,0,1c.43.06,1,.32,1.27.14a9.09,9.09,0,0,0,1.51-1.41Z"/><path class="cls-1" d="M570.72,509.47c2,8.9,7.28,11.33,14.83,7.4,1.08-.56,3.09-.16,4.27.5,1.65.92,2.93,2.5,4.38,3.8-7.28,6.82-16,8.22-23.42,4-6.9-3.91-11.1-14-9.24-22.19,1.94-8.6,8.58-14.63,17.08-15.32,11-.89,19.92,8.36,19.78,20.11,0,.58-1.95,1.58-3,1.63-4.19.2-8.39.08-12.59.08Zm17.44-7c-1.73-4.06-4.56-6.24-8.54-6.13-3.78.1-6.4,2.35-8.21,6.13Z"/><path class="cls-1" d="M554.14,498.89c2.6,10.58,2.6,10.58-8.08,10.58-5.17,0-10.35.15-15.52-.05-3.21-.13-3,1.16-2,3.37,2.28,5,7.12,7.85,11.19,5.21,5.65-3.65,8.27-.2,11.44,3.11a18.2,18.2,0,0,1-26.44,1.5c-8.15-7.52-8.49-21.72-.71-29.6s19.11-7.2,27.66,1.89Zm-8.52,3.71c-2.4-4.13-5.25-7.08-9.51-6.05-2.82.68-5.21,3.15-7.79,4.82l.84,1.23Zm-4.87,21.61c-.36-.61-.53-1.25-.81-1.3-.43-.09-.94.23-1.42.38.28.3.5.72.85.88A3.92,3.92,0,0,0,540.75,524.21Zm10.68-22.8c-.71-.59-1-1.06-1.36-1.08s-.66.46-1,.72c.35.37.65.9,1.09,1.06C550.43,502.2,550.9,501.72,551.43,501.41Z"/><path class="cls-1" d="M492.07,512.14c0-2.9.05-5.81,0-8.72s1.39-6.93-4.28-6.36c-.25,0-1.14-3.46-1.18-5.32,0-1,1.22-3,1.72-3,4.14.44,3.5-2.18,3.87-4.83.62-4.5,1.17-9.27,3.1-13.27,2.2-4.58,15.13-7.63,19.37-5.38a2.11,2.11,0,0,1,.87,1.44c.58,4.62-2.49,8-7,8.44-2,.19-5.25,1.11-5.57,2.32a27.37,27.37,0,0,0-.34,10.41c.07.51,4.1.81,6.26.67,3.23-.2,4.84.15,4.81,4.21s-1.34,4.79-5,4.65c-6.64-.25-6.64-.05-6.64,6.54s-.12,12.92.05,19.38c.07,2.63-.53,3.61-3.41,3.59-6.68-.06-6.68.11-6.68-6.56Z"/><path class="cls-1" d="M459.15,512.05c0-2.91.06-5.81,0-8.71s1.43-6.89-4.23-6.32c-.25,0-1.18-3.74-1.21-5.74,0-.87,1.48-2.52,2.25-2.5,3.07.08,3.49-1.51,3.2-3.93,0-.32,0-.64,0-1-.75-15.54,7.14-19.48,21.2-18.77,2.45.13,2.38,1,2,3-.82,4.68-2.12,8.17-8.16,7-3.35-.63-4.91,1.75-5,5,0,1.61.16,3.25,0,4.83-.4,3.15,1.06,4,3.9,3.66a17.77,17.77,0,0,1,2.42,0c4.47,0,7.06,3.75,4.82,7.54-.57,1-3,1.11-4.66,1.14-6.44.14-6.44.07-6.44,6.34,0,6.61-.3,13.24.09,19.84.24,4.16-2.27,3.63-4.55,3.3s-6,2.07-5.66-3.12C459.33,519.8,459.15,515.92,459.15,512.05Z"/><path class="cls-1" d="M732,513.67c-3.37-.81-6.75-1.6-10.11-2.43-4.85-1.21-9.2-7.08-9-12.1a11.61,11.61,0,0,1,10.58-10.77,29.47,29.47,0,0,1,12.14,2c6,2.35,6,3.58,1.29,7.89-1,.87-3.22.52-4.85.36-2.44-.24-4.84-1-7.27-1.13-.78,0-1.62,1.26-2.43,1.95.74.7,1.37,1.74,2.26,2.07a92.4,92.4,0,0,0,9.19,2.9c4.75,1.2,7.49,4.08,8.12,8.93A11.53,11.53,0,0,1,736,525c-6.61,3.54-18,1.77-23.09-3.73a2.77,2.77,0,0,1,0-2.6,20.61,20.61,0,0,1,3.45-4c.52-.47,2-.78,2.25-.49,3.48,4.1,8,3.24,12.46,2.83Z"/><path class="cls-1" d="M927.22,495.91c-2.56,3.59-5.38,5-9.28,1.62a4.7,4.7,0,0,0-3.71-.54c-1.43.35-2.69,1.41-4,2.16,1.14.92,2.14,2.16,3.44,2.67,2.82,1.12,5.78,1.92,8.71,2.76a10,10,0,0,1,7.53,8.53,10.84,10.84,0,0,1-4.61,11c-6.49,4.81-19.29,3.31-24.49-2.85-.41-.48-.75-1.59-.49-1.94,1.24-1.68,2.44-3.69,4.18-4.58,1-.52,3,1,4.56,1.27a73.79,73.79,0,0,0,9.21,1.24c.71,0,2.21-1.49,2.09-2a4.24,4.24,0,0,0-2.15-2.59,45.46,45.46,0,0,0-6.07-1.59c-8.71-2.24-12.7-7.38-11-14.12,1.66-6.48,9.6-10.56,17.24-8.53,3,.81,5.88,2.39,8.81,3.62Z"/><path d="M747.42,489.72c6.71-1.18,4.84-6.36,5-10.63.08-1.84.15-5.08.8-5.23,2.61-.61,5.44-.33,8.18-.17.32,0,.74,1.25.82,2a38.37,38.37,0,0,1,0,3.87c0,8.53,0,8.73,8.53,9,3.5.11,3,2.12,2.87,4.13s1.09,4.49-2.87,4.62c-8.53.29-8.53.5-8.53,9.11,0,1.45,0,2.91,0,4.36-.17,4.42,1.74,6.55,6.36,6.39,4.23-.15,8,4.74,7,8.67a1.71,1.71,0,0,1-.72,1c-6.21,3.35-19.56-2.45-21.59-9.44a26.74,26.74,0,0,1-.88-5.7,51.74,51.74,0,0,1,0-7.26c.34-4,.3-7.67-5-8.11C749.12,494.08,750.33,491.9,747.42,489.72Z"/><path d="M795,526.88H784.6q0-19.32.1-38.63H795Z"/><path class="cls-2" d="M202.48,502c-10-4.37-11.17-16.64-2.71-24.38a26.45,26.45,0,0,1,3.8-3c6.34-4,10.33-8.83,5.63-17.37,7.56,5.18,9.11,12.33,4.83,20.53a25.76,25.76,0,0,1-5.6,7.12C201.58,491,200.81,492.77,202.48,502Z"/><path class="cls-3" d="M794.93,472.85c1.92,3.86,2.26,7.9-2.09,9.82-2,.89-5.82,0-7.64-1.5-1.33-1.1-1.83-5.3-.79-6.68,1.39-1.84,4.57-2.53,7.12-3.2.93-.24,2.25,1,3.4,1.55Z"/><path class="cls-4" d="M795,526.88,795,488.23l6-1,.83,2.06c-5.29-2.23-5.77.41-5.65,4,.32,9.64.57,19.28.63,28.92C796.73,523.82,795.62,525.35,795,526.88Z"/><path class="cls-5" d="M784.7,488.24q0,19.31-.1,38.63L781,528.42c4.77-12.53,1.8-25.23,2.36-37.73C783.35,489.85,784.22,489.05,784.7,488.24Z"/><path class="cls-6" d="M866,526.12l5.81-6.25,2,7.08-2.49.81-4.31-.7Z"/><path class="cls-7" d="M893.48,521.17a36.74,36.74,0,0,1-.22-4.56,12,12,0,0,1,.92-2.94,15.14,15.14,0,0,1,3.43,2c.34.33-.11,1.76-.53,2.5a33.39,33.39,0,0,1-2.49,3.35Z"/><path class="cls-7" d="M425.19,484.54c-1.29.83-2.13,1.76-3,1.82-.7,0-1.47-1-2.2-1.55.84-.64,1.61-1.61,2.55-1.82C423.13,482.85,424,483.8,425.19,484.54Z"/><path class="cls-5" d="M237.54,579.31l3.87,1.55-1.1,1.89-3.47-2.16Z"/><path class="cls-5" d="M277.11,517.53a24.63,24.63,0,0,1,.47-3.55,9.41,9.41,0,0,1,2.05.06c-.41,1.27-.82,2.53-1.24,3.79Z"/><path class="cls-5" d="M476,484.36c-1.43-.31-2.87-.61-4.28-1a5.49,5.49,0,0,1,.07-1.23l4.61.76C476.27,483.38,476.13,483.87,476,484.36Z"/><path class="cls-6" d="M747.42,489.72c2.91,2.18,1.7,4.36,0,6.54Z"/><path class="cls-4" d="M525.32,483.63l-2.09,4.49c-.41-.21-1.18-.56-1.17-.58.66-1.51,1.37-3,2.09-4.46Z"/><path class="cls-4" d="M857.43,524.5v4.56l-1.19.07c-.15-1.59-.29-3.17-.44-4.76Z"/><path class="cls-8" d="M554.14,498.89l-2.46-4C555.6,494.33,555.28,496.36,554.14,498.89Z"/><path class="cls-4" d="M525.74,529.18,522,526.35c.61-.14,1.5-.61,1.78-.37a20.87,20.87,0,0,1,2.27,2.75Z"/><path class="cls-5" d="M709.37,523.6l-3.44,1.15-.47-1.83,3.74-.25Z"/><path class="cls-4" d="M189.19,425.2c1-.25,2.08-.5,3.13-.68,0,0,.2.84.31,1.29l-3.32.48Z"/><path class="cls-4" d="M199.17,467.09c-.69-.76-1.49-1.4-1.4-1.57a9.33,9.33,0,0,1,1.52-1.77c.37.41,1.08.86,1,1.21A7.54,7.54,0,0,1,199.17,467.09Z"/><path class="cls-5" d="M856.63,492.28l-4.16.8-.19-.8,4.07-1.18C856.45,491.49,856.54,491.89,856.63,492.28Z"/><path class="cls-8" d="M685.42,487.89l-6.77.06Z"/><path class="cls-5" d="M751.84,468.44a15.94,15.94,0,0,1-2.57,1.22c-.23,0-.86-.56-.83-.64a5,5,0,0,1,1.18-1.82C749.8,467.06,750.63,467.74,751.84,468.44Z"/><path class="cls-5" d="M794.93,472.84l4-1.7c.14.57.27,1.14.4,1.71h-4.35Z"/><path class="cls-9" d="M570.67,483.34l.85,1.11a7.84,7.84,0,0,1-1.71,1.09c-.25.08-.72-.49-1.09-.76Z"/><path class="cls-5" d="M713.28,526.44c-.72.65-1.23,1.41-1.56,1.34-.48-.11-.84-.81-1.24-1.26a11.83,11.83,0,0,1,1.76-1.19C712.36,525.27,712.81,525.93,713.28,526.44Z"/><path class="cls-9" d="M778.45,521.25c.61.67,1,1.07,1.36,1.47a5.72,5.72,0,0,1-1.66.75c-.27,0-.95-.71-.89-.84A6.24,6.24,0,0,1,778.45,521.25Z"/><path class="cls-4" d="M486.91,463.67l2.1,1.85-.6.71-2.15-1.78Z"/><path class="cls-5" d="M744.16,524.69l-1.8,2.54-.67-.39,1.5-2.78Z"/><path class="cls-10" d="M927.22,495.91l0-3.89c.63.56,1.88,1.31,1.77,1.65C928.71,494.51,927.84,495.18,927.22,495.91Z"/><path class="cls-5" d="M920.36,484.22l-3.07.28c0-.3-.07-.59-.1-.89l3.19-.31Z"/><path class="cls-9" d="M142.66,606.12c-.59-.41-1.25-.75-1.21-.86a3.23,3.23,0,0,1,.86-1.36c.12-.1,1,.36,1,.48A8.83,8.83,0,0,1,142.66,606.12Z"/><path class="cls-5" d="M140.87,574.18l-3.2-1,.2-.77,3.26.78Z"/><path class="cls-5" d="M403.21,486.68l-3.74-2a8.14,8.14,0,0,1,2,0C401.83,484.68,402.05,485.24,403.21,486.68Z"/><path class="cls-11" d="M867,527.06l4.31.7Z"/><path class="cls-4" d="M558.68,503.41l-.77.7a4,4,0,0,1-.55-1.22,4.21,4.21,0,0,1,.35-1.29Z"/><path class="cls-9" d="M296.23,547.05c-.59.29-1.07.71-1.38.61s-.75-.66-1.12-1c.32-.28.64-.76,1-.77S295.37,546.36,296.23,547.05Z"/><path class="cls-4" d="M517.13,501c-.33.44-.7,1.07-.8,1a5.91,5.91,0,0,1-1.28-.87c.3-.3.57-.81.91-.86S516.66,500.73,517.13,501Z"/><path class="cls-11" d="M732,513.67l-1,3.36Z"/><path class="cls-6" d="M395.42,480.36l4.23-2.79c-1,1.56-1.25,2.29-1.75,2.6S396.7,480.29,395.42,480.36Z"/><path class="cls-12" d="M182.84,470.67c-.32-.53-.8-1-.71-1.26.16-.43.69-.73,1.06-1.09.26.33.73.67.72,1S183.42,470,182.84,470.67Z"/><path class="cls-12" d="M841.9,502.1a19.45,19.45,0,0,1,1.15,2.27A6.21,6.21,0,0,1,842,505a17.21,17.21,0,0,1-1.07-2C840.87,502.92,841.42,502.56,841.9,502.1Z"/><path class="cls-3" d="M441.13,499l2.82-.22a9.09,9.09,0,0,1-1.51,1.41c-.29.18-.84-.08-1.27-.14Z"/><path class="cls-6" d="M540.75,524.21a3.92,3.92,0,0,1-1.38,0c-.35-.16-.57-.58-.85-.88.48-.15,1-.47,1.42-.38C540.22,523,540.39,523.6,540.75,524.21Z"/><path class="cls-12" d="M551.43,501.41c-.53.31-1,.79-1.26.7-.44-.16-.74-.69-1.09-1.06.33-.26.67-.73,1-.72S550.72,500.82,551.43,501.41Z"/><path class="cls-4" d="M868.65,503.23l1.06.31c-.19.92-.39,1.83-.59,2.75"/></svg>